<svg class="logo" width="40" height="74" xmlns="http://www.w3.org/2000/svg" viewBox="0 0 40 74"><path fill="currentColor" d="M22.25 2.85l-.41-.19.16-.09-.13-1.15h.39l.08.46.21-.35.52.14v-.52C23.07.98 23 .8 23 .5c.37.31.49.85 1 .7a4 4 0 0 0 1.1-.37c.45-.3.78-.34 1.11.08a4.29 4.29 0 0 1 .64.91c.19.45-.12.87-.79 1 .24.37.47.68.66 1 .39.68.71 1.39 1.13 2s.7 1.65 1.69 2l-.41.43c.06.06.1.11.12.1.24-.05.58-.24.69-.15a3.07 3.07 0 0 1 .8 1c.14.31.1.71.6.74.12 0 .26.14.34.25.75 1 1.46 2.1 2.23 3.12.6.82 1.28 1.58 1.89 2.39a13.08 13.08 0 0 1 .76 1.3c0 .05.14.07.21.08.52.13.58.41.36.88a5.37 5.37 0 0 0-.29 1.27l-.52.12a1.14 1.14 0 0 1 0 .32c-.1.26-.17.62-.37.73s-.47-.17-.72-.27l-.36-.13c0 .15-.1.33 0 .45.5 1 .48 1-.47 1.7a2.83 2.83 0 0 0-.51.79l.14.14-.5-.1a1.92 1.92 0 0 1-1.67 1.92l-.72 1.49-.5-.19v.66l-.33-.11c-.41.39-.42 1-1 1.33A5.26 5.26 0 0 0 28 29.16c.1.58-.4.92-1.23.64-.43-.14-.53.09-.59.38a2.44 2.44 0 0 0-.07 1.1c.15.54-.2.75-.5 1a2 2 0 0 0-.91 1.25c-.1.47-.76.83-1.17 1.22a4.09 4.09 0 0 1-.48.31h.42c1.07.93 2.12 1.87 3.18 2.81.53.46 1.1.9 1.62 1.38a5.63 5.63 0 0 1 .54.72c.06.08.15.2.22.2.67 0 1 .57 1.41.89a10.14 10.14 0 0 1 1.1 1c.81.76 1.61 1.54 2.44 2.28s1.44 1.2 2.14 1.82S37.41 47.33 38 48c.1.09.1.28.22.34l.81.66c.17.14.32.33.5.45a.74.74 0 0 1 .11 1.11c-.09.07-.28 0-.48.05l-.12 1.27h-.14l-.5-1h-.17c-.06.19-.22.42-.18.58.27.89-.49 1.11-.95 1.54a1.8 1.8 0 0 0-.33.4 2.93 2.93 0 0 1-1.54 1.6c-.42.15-.57.91-1.24.82l-.31 1.33-.41-.34-.39.71.74-.11c-.4.4-.69.72-1 1-.07.07-.27 0-.46-.06-.17.4-.15 1.06-.72 1.42-.1.06-.2.17-.31.18a3.63 3.63 0 0 0-1.81 1.48 15 15 0 0 1-.84 1.44 5.57 5.57 0 0 0-.23.53c-.41-.1-.67 0-.85.48-.07.2-.5.27-.81.41l.19.27-1.2 1c.47.33.46.56-.21 1-.29.2-.48.67-1 .51a.89.89 0 0 0-.32.57 1.65 1.65 0 0 1-.53 1.36c-.1.12-.3.14-.52.23l.11.5c-.34 0-.68-.07-.57.46 0 .15-.24.43-.44.55a.92.92 0 0 0-.57.84 1 1 0 0 1-.58.76 2.13 2.13 0 0 0-1.48 1.12l-.39-.5c-1 .48-2 .08-1.91-.8l-.81-.16v-.16l.5.07-.61-1-1.14.4c.26-.54-1-.77-.36-1.39L13.47 69l.48-.22-.37-.42a4.31 4.31 0 0 1-1.2.19c-.21 0-.45-.37-.54-.61s-.09-.67-.61-.69c-.16 0-.3-.4-.54-.74a1.17 1.17 0 0 1-1.27-1.06h-.84l.25-.45-.42-.07c-.28 0-.66.14-.55-.44 0-.26-.76-.76-1.05-.66-.08-.3.09-.76-.56-.69-.22 0-.51-.43-.75-.67-.08-.08-.15-.3-.17-.29-.65.18-.94-.43-1.4-.64a2.54 2.54 0 0 1-1.05-.69c-.5-.75-1.34-1-2-1.45-.08-.07-.09-.24-.13-.4s-.12-.4-.19-.66l.49-.1-.05-.43-.62.34.28-.66c-.76-.65-.7-.79.61-1.39-.16-.3-.16-.3-.94 0 .24-.44-.11-1.06.6-1.4.38-.18.62-.67.91-1s.37-.51.72 0l.39-1.52.64.39c.12-.71-.17-1.68 1.09-1.54-.2-.63.24-.74.56-.79a2.69 2.69 0 0 1 .29-.61c1-1.12 2-2.24 3-3.33a14.89 14.89 0 0 1 1.3-1.21c.08-.06.29 0 .26 0 .35-.47.66-.92 1-1.34s.63-.66.93-1a1.21 1.21 0 0 1 .88-.56c.24 0 .44-.52.65-.8l-.12-.11 1.07.13v-1.1a.63.63 0 0 1 .21-.43c.86-.48 1.11-1.46 1.76-2.1s1.42-1.51 2.15-2.29l-.88-1.37c0-.06-.12-.14-.18-.14-.93 0-1.29-.77-1.84-1.27-1-.88-1.92-1.79-2.88-2.69a1.18 1.18 0 0 1-.24-.26 2 2 0 0 0-1.1-1.21c-.56-.25-.92-.93-1.39-1.4s-1-1-1.57-1.48c-.08-.07-.22-.17-.21-.22.17-.59-.37-.7-.65-1a3.11 3.11 0 0 1-1.22-1.84.34.34 0 0 0-.18-.24c-.82-.29-1.22-1-1.7-1.65a.67.67 0 0 1 0-.64c.44-.53.94-1 1.42-1.49l.15.11.11-.57c.75 0 .7-.6.8-1l1.6-.6c.09-1.08 1.17-1.51 1.87-2.23 1-1 2.09-2 3.16-3a19.41 19.41 0 0 1 1.82-1.3 9.58 9.58 0 0 1 .69-.73 18.29 18.29 0 0 0 2.12-2 5.43 5.43 0 0 1 .77-.75c.53-.48 1-1 1.58-1.44a14 14 0 0 1 1.17-.85c.54-.36.36-.91.4-1.4l.25.47.58-.23L22.66 2zm-8 62.05a2.93 2.93 0 0 1 .53.25c.69.58 1.25 1.29 1.94 1.87.86.71 1.68 1.49 2.55 2.2a1.07 1.07 0 0 0 1.55-.22c.74-1.15 1.5-2.29 2.28-3.43.14-.2.44-.3.59-.49.44-.55.81-1.16 1.27-1.68.77-.84 1.61-1.6 2.38-2.43.54-.57 1-1.2 1.52-1.79s1-1 1.47-1.57c.31-.33.62-.65.9-1a29.18 29.18 0 0 0 2.24-2.47A6.77 6.77 0 0 1 35 52.49c.63-.49.86-.93.53-1.65 0-.1-.18-.17-.28-.25-.3-.25-.81-.46-.87-.75a2.27 2.27 0 0 0-1.19-1.62c-.31-.17-.66-.72-1.12-.22l-.58-.93.76.18.09-.18-.65-.35c-.13-.07-.36-.15-.35-.22.05-.72-.35-.41-.71-.35l.27.59a1 1 0 0 1-.69-1c0-.41-.12-.62-.57-.41-.24.11-.84-.29-.82-.56 0-.07.07-.18.11-.18a.33.33 0 0 1 .23.12c.26.37.48.26.76-.06-.56-.2-1-.79-1.49-.4l-1-.56a8.25 8.25 0 0 0-1-1c-.37-.31-.81-.54-1.18-.86s-.51-.78-.72-.76c-.64.07-.67-.4-.86-.73s-.2-.51-.53-.23a1.52 1.52 0 0 1-.29-.39 2.65 2.65 0 0 1-.05-.59l-.57.22a2.59 2.59 0 0 0-.17-.58c-.09-.16-.25-.29-.36-.45s-.35-.52-.52-.79l-.09.1v1h-.16a2.57 2.57 0 0 1-.35-.65 2.76 2.76 0 0 1 0-.76h-.12l-.34.49a1.07 1.07 0 0 1 .13 1.41c-.26.35-.88.43-1.37.64.28.72-.39 1-.66 1.53a.77.77 0 0 1-.52.37c-.49 0-.75.1-.67.64 0 .06-.13.2-.2.2-.55 0-.43.44-.54.74a1.63 1.63 0 0 1-.19.51A16.12 16.12 0 0 1 15 45c-1.27 1.27-2.56 2.53-3.85 3.79l-1 1-.73-.18.25.51a6 6 0 0 1-.65.74 4.38 4.38 0 0 1-.77.43c-.15.26-.35.9-.54.9-.82 0-.77.73-1 1.12s-.29.86-.89.82c-.08 0-.24.11-.24.17 0 .5-.39.61-.71.85A5.83 5.83 0 0 0 4 56.16 1.72 1.72 0 0 1 4.69 58h.19l.33-.89c.58 1.25.58 1.25 1.52 1.34-.1 1.25 1.1 1.21 1.73 1.75l-.46.6.79.48.21-.74a2 2 0 0 1 .54.23c.31.24.58.53.9.83.9-.41.22.72.69.73a2.65 2.65 0 0 1 .7.33c.23.16.43.33.65.5s.25.16.37.26l1.45 1.38zm-5.5-45.12l.85-.56.16.2-1.2 1a7.81 7.81 0 0 0 .6.73c.74.76 1.51 1.49 2.23 2.26.46.48.84 1 1.32 1.51.76.76 1.58 1.45 2.35 2.19.21.2.31.51.52.72a3.33 3.33 0 0 0 .64.45 2.15 2.15 0 0 1 .32.29c.29.27.68.47.85.8s.31 1 1 .77c.06 0 .19.14.27.23l1.93 2.13c.29.32.48.31.66-.12a2.09 2.09 0 0 1 .6-.94 5.26 5.26 0 0 0 1.71-1.93c.3-.46.53-.85 1.17-.71 0-.29-.14-.6-.06-.67.56-.46.65-1.34 1.45-1.61.18-.06.27-.34.41-.52.33-.42.49-1 1.1-1.11a2.39 2.39 0 0 1 1.43-1.53 2.2 2.2 0 0 1 1.67-1.79c-.1-1.44 1.36-1.76 1.89-2.76l.34.22a8.2 8.2 0 0 1 .44-.89 1.44 1.44 0 0 0-.09-1.27c-.1-.07-.27 0-.4-.05a2.16 2.16 0 0 1 .2.64c0 .08-.24.17-.38.21s-.17-.08-.28-.14l.27-.49c-.17-.14-.3-.27-.45-.38a1.25 1.25 0 0 1-.27-1.77c.06-.07 0-.21 0-.31a.77.77 0 0 0-.34 0c-.3.17-.58.36-.88.56-.16-.54-.19-1 .54-1.14l-.45-.2v-.12h.56l-.06-.4a3.87 3.87 0 0 1-1-.24c-.13-.07-.2-.39-.16-.57.05-.33.09-.31-.23-.34a.53.53 0 0 1-.35-.21c-.26-.45-.5-.92-.76-1.43l-.51.25-.7-.76.34-.3-.09-.12-1 .4a1.21 1.21 0 0 1-.13-.35c0-.26.07-.61-.07-.77-.43-.49-.11-.66.3-.81a1.77 1.77 0 0 0-.13-.56c-.08-.14-.33-.32-.38-.29-.35.23-.62.2-.76-.2s-.12-.64-.2-1-.09-.63-.27-.77-.69-.11-.75 0c-.34.63-.84.41-1.19.35l-.63.56c-.32.27-.86.51-.91.82-.08.48-.41.59-.67.81a9 9 0 0 0-1.12.94 7.64 7.64 0 0 0-.82 1.45s.1.13.18.24l-1.22.6c.17.47-.53.57-.73 1a1.25 1.25 0 0 1-.93.69c-.19 0-.33.3-.48.47s-.42.52-.66.82l-.34-.79-.12-.26c-.08.07-.21.14-.23.23-.14.57-.25 1.15-.38 1.75-.42-.09-.82-.16-.56.49 0 .06-.24.28-.39.32s-.46 0-.69 0-.44.12-.5.25a5.81 5.81 0 0 0-.24 1.05l-.54-.64-.21.67h.15l.16-.28c.3.61 0 1.05-.66 1.18l-.28-1c-.43.79-.51 1.81-1.61 2zm23.73 2.76a2.89 2.89 0 0 1-.71 0 4 4 0 0 1-.75-.38c0 .22 0 .46.05.57a2.39 2.39 0 0 0 .68.35c.08.63.19.7 1.13.67zM12.23 67v1.46l.61-.22v-.68l.66.44-.5-1zm-1-2c.09.38.16.67.24 1 0 .05.13.13.18.12s.15-.11.15-.17c0-.4 0-.81-.05-1.21h-.2zm22-44.68l.6 1.2.3-.81zM13 45.32l-.19-.08-.49.38.28.74h.15zm20-24l-.15-.32-1.1.54.09.22zm-5.28 6.86l-.22-.06-.4 1.37.24.07z"></path></svg>